<?xml version="1.0" encoding="UTF-8"?>
<svg version="1.1" xmlns="http://www.w3.org/2000/svg" width="496" height="496">
<path d="M0 0 C0.97069427 0.00237671 1.94138855 0.00475342 2.9414978 0.00720215 C19.23012805 0.06927251 34.87955625 1.17797359 50.875 4.4375 C51.62201172 4.58171387 52.36902344 4.72592773 53.13867188 4.87451172 C57.80200739 5.79844347 62.3361606 7.03959547 66.875 8.4375 C67.83132324 8.7272168 68.78764648 9.01693359 69.77294922 9.31542969 C103.93770719 19.80138631 133.54542632 35.5042259 160.875 58.4375 C161.87080078 59.23027344 161.87080078 59.23027344 162.88671875 60.0390625 C164.25245223 61.12782905 165.5715142 62.27493159 166.875 63.4375 C166.875 64.0975 166.875 64.7575 166.875 65.4375 C167.45822021 65.69692383 168.04144043 65.95634766 168.64233398 66.22363281 C172.70472377 68.4322935 175.70217696 71.92803541 178.9375 75.1875 C179.69683838 75.95102783 180.45617676 76.71455566 181.23852539 77.5012207 C187.70121003 84.09284355 193.43100365 90.9966544 198.875 98.4375 C199.72104192 99.56533846 200.56739736 100.69294181 201.4140625 101.8203125 C232.73775432 144.04051529 248.56903028 195.68861047 248.26611328 248.0078125 C248.24990911 251.33113981 248.26613535 254.65326966 248.28515625 257.9765625 C248.29747641 269.86640513 247.61975683 280.85724023 244.875 292.4375 C244.43138669 294.58418051 243.98988322 296.73129841 243.55078125 298.87890625 C232.45782038 349.63328053 207.54675872 392.69449946 170.49145508 428.84838867 C169.08596375 430.23010488 167.70655355 431.63825373 166.33203125 433.05078125 C163.5186734 435.78362965 160.53142605 438.22316503 157.4375 440.625 C156.82624268 441.1005835 156.21498535 441.57616699 155.58520508 442.06616211 C110.7925012 476.68940138 57.58159728 496.26120979 0.75 495.875 C-0.22401764 495.87162628 -1.19803528 495.86825256 -2.2015686 495.86477661 C-60.2060867 495.57537839 -115.95474433 475.19158703 -160.125 437.4375 C-160.88554687 436.78910156 -161.64609375 436.14070313 -162.4296875 435.47265625 C-175.57488905 423.94294243 -187.79485828 411.55672137 -198.125 397.4375 C-198.97104192 396.30966154 -199.81739736 395.18205819 -200.6640625 394.0546875 C-231.8095844 352.07463425 -247.91642232 300.39292654 -247.5625 248.3125 C-247.55912628 247.33848236 -247.55575256 246.36446472 -247.55227661 245.3609314 C-247.26287839 187.3564133 -226.87908703 131.60775567 -189.125 87.4375 C-188.47660156 86.67695312 -187.82820313 85.91640625 -187.16015625 85.1328125 C-175.63044243 71.98761095 -163.24422137 59.76764172 -149.125 49.4375 C-147.99716154 48.59145808 -146.86955819 47.74510264 -145.7421875 46.8984375 C-103.75410102 15.74695565 -52.08605979 -0.33914363 0 0 Z M-19.125 64.4375 C-19.87942383 64.49856934 -20.63384766 64.55963867 -21.41113281 64.62255859 C-43.83022737 66.5238083 -66.59808982 74.36321066 -86.125 85.4375 C-87.28 86.04851562 -88.435 86.65953125 -89.625 87.2890625 C-103.92474736 95.04539868 -116.48243867 105.1342696 -128.125 116.4375 C-128.8986792 117.1804834 -128.8986792 117.1804834 -129.68798828 117.93847656 C-139.18969176 127.01583768 -139.18969176 127.01583768 -147.125 137.4375 C-147.125 138.0975 -147.125 138.7575 -147.125 139.4375 C-148.115 139.7675 -149.105 140.0975 -150.125 140.4375 C-151.47520511 142.48226738 -152.6566687 144.47412383 -153.8125 146.625 C-154.52402936 147.91835973 -155.23628827 149.21131833 -155.94921875 150.50390625 C-156.31063965 151.16406738 -156.67206055 151.82422852 -157.04443359 152.50439453 C-158.03927185 154.28413454 -159.08952203 156.0325993 -160.14453125 157.77734375 C-176.67856905 185.20362736 -183.96740609 217.6338375 -184.125 249.4375 C-184.1343457 250.26362793 -184.14369141 251.08975586 -184.15332031 251.94091797 C-184.30694813 287.58955507 -171.71777187 322.0483422 -152.125 351.4375 C-151.135 351.4375 -150.145 351.4375 -149.125 351.4375 C-149.455 352.4275 -149.785 353.4175 -150.125 354.4375 C-148.44436385 356.95068789 -146.74545765 359.19014485 -144.8125 361.5 C-144.23218018 362.2002832 -143.65186035 362.90056641 -143.05395508 363.62207031 C-113.74271043 398.32781087 -76.54425159 420.29039623 -32.125 429.4375 C-30.98933594 429.67339844 -29.85367188 429.90929687 -28.68359375 430.15234375 C16.26087669 438.18023482 65.57864209 426.83470643 102.99707031 400.97070312 C111.41756091 394.987419 119.42498107 388.6018587 126.875 381.4375 C127.39771484 380.94588379 127.92042969 380.45426758 128.45898438 379.94775391 C144.47799345 364.83746285 156.36513437 347.50459616 166.3125 327.9375 C166.64282227 327.29103516 166.97314453 326.64457031 167.31347656 325.97851562 C169.34551486 321.87188326 170.73651683 317.87701226 171.875 313.4375 C172.535 313.4375 173.195 313.4375 173.875 313.4375 C174.71251472 310.14872269 175.53421205 306.8562137 176.34814453 303.56152344 C176.72667544 302.03547205 177.10821826 300.51016658 177.49169922 298.98535156 C182.78298367 283.09615767 182.78298367 283.09615767 181.875 267.4375 C182.535 267.4375 183.195 267.4375 183.875 267.4375 C186.4318289 227.5509691 179.7464584 189.7187455 159.5625 154.75 C159.15418945 154.03690674 158.74587891 153.32381348 158.32519531 152.58911133 C156.16288431 148.99429149 154.59083604 147.23389755 150.875 145.4375 C150.5238257 143.77450105 150.19378897 142.10700965 149.875 140.4375 C148.4649307 138.23849839 147.06550899 136.27489119 145.4375 134.25 C144.95941895 133.65195557 144.48133789 133.05391113 143.98876953 132.43774414 C128.583453 113.66356216 110.18303356 98.06663018 88.875 86.4375 C88.24803223 86.09380371 87.62106445 85.75010742 86.97509766 85.39599609 C69.83711031 76.12904582 51.91668148 70.358688 32.875 66.4375 C31.73933594 66.20160156 30.60367188 65.96570313 29.43359375 65.72265625 C13.54112325 62.88397508 -3.09426279 62.87326252 -19.125 64.4375 Z " fill="#080808" transform="translate(248.125,-0.4375)"/>
<path d="M0 0 C5.445 22.77 5.445 22.77 11 46 C6.359375 47.505625 1.71875 49.01125 -3.0625 50.5625 C-13.72621881 54.09256257 -24.10128901 57.61224006 -34 63 C-34.65645508 63.35497559 -35.31291016 63.70995117 -35.98925781 64.07568359 C-46.45909643 69.7994858 -55.9990681 76.42638712 -65.34692383 83.83007812 C-67.15109149 85.10693109 -69.00318539 86.05878816 -71 87 C-72.485 86.01 -72.485 86.01 -74 85 C-73.34 86.32 -72.68 87.64 -72 89 C-72.83402344 89.73863281 -73.66804688 90.47726563 -74.52734375 91.23828125 C-81.7216027 97.69167091 -88.10455063 104.30729713 -94 112 C-94.69480469 112.886875 -95.38960938 113.77375 -96.10546875 114.6875 C-97.74686914 116.7842989 -99.37821065 118.88802352 -101 121 C-103.38564077 120.42415568 -105.66682784 119.77772405 -108 119 C-106.35 119.99 -104.7 120.98 -103 122 C-104.56677164 126.51092493 -107.0277806 130.28361286 -109.625 134.25 C-115.38322163 143.22886835 -120.61657565 152.84972695 -124 163 C-124.99 163 -125.98 163 -127 163 C-126.01 163.99 -126.01 163.99 -125 165 C-125.37511719 166.093125 -125.75023437 167.18625 -126.13671875 168.3125 C-130.48954704 181.3495494 -133.4193556 194.5096381 -136 208 C-137.11632812 207.87882813 -138.23265625 207.75765625 -139.3828125 207.6328125 C-151.91111882 206.286673 -164.44928636 205.11917192 -177 204 C-157.2 206.475 -157.2 206.475 -137 209 C-137 224.51 -137 240.02 -137 256 C-149.87 257.65 -162.74 259.3 -176 261 C-169.73 260.34 -163.46 259.68 -157 259 C-153.1045263 258.61776697 -149.20961509 258.2387705 -145.3125 257.875 C-144.39662109 257.78863281 -143.48074219 257.70226562 -142.53710938 257.61328125 C-140.35815933 257.40793517 -138.17909373 257.20381573 -136 257 C-135.87471924 257.70382812 -135.74943848 258.40765625 -135.62036133 259.1328125 C-133.36163922 271.68741482 -131.12313446 283.99099526 -126.8203125 296.0234375 C-126.01604933 298.94176388 -125.89641853 300.23423409 -127 303 C-126.34 303 -125.68 303 -125 303 C-124.61070313 303.87398438 -124.22140625 304.74796875 -123.8203125 305.6484375 C-119.09763424 316.08637642 -113.67625743 326.05394893 -108 336 C-107.60731934 336.68835938 -107.21463867 337.37671875 -106.81005859 338.0859375 C-105.87436793 339.72452722 -104.93733797 341.36235205 -104 343 C-104.99 343.99 -105.98 344.98 -107 346 C-105.68 345.34 -104.36 344.68 -103 344 C-102.35933594 344.7734375 -101.71867187 345.546875 -101.05859375 346.34375 C-96.6467984 351.66015596 -92.22616769 356.96103553 -87.64453125 362.1328125 C-86.50346472 363.42837023 -85.37676965 364.73667227 -84.26171875 366.0546875 C-80.86453722 370.04694074 -77.40929158 373.52851344 -73.28515625 376.7734375 C-72.86105469 377.17820312 -72.43695313 377.58296875 -72 378 C-72 378.66 -72 379.32 -72 380 C-71.2884375 380.24105469 -70.576875 380.48210937 -69.84375 380.73046875 C-66.57199501 382.19107366 -64.26957051 384.03802745 -61.5 386.3125 C-42.04832631 401.61947965 -20.01180664 412.6709307 4.13964844 418.38085938 C6.0625 418.8671875 6.0625 418.8671875 9 420 C10.20732023 422.97873526 9.96892326 425.13315737 9.21142578 428.2019043 C9.01437042 429.01922531 8.81731506 429.83654633 8.61428833 430.67863464 C8.39352631 431.5516774 8.17276428 432.42472015 7.9453125 433.32421875 C7.72430878 434.22622513 7.50330505 435.12823151 7.27560425 436.05757141 C6.80741448 437.96076786 6.33474015 439.8628659 5.85791016 441.76391602 C5.12571995 444.68462813 4.40741275 447.60848611 3.69140625 450.53320312 C3.23518202 452.38040784 2.77817766 454.22742009 2.3203125 456.07421875 C2.10359894 456.9533342 1.88688538 457.83244965 1.66360474 458.73820496 C0.11674121 464.88325879 0.11674121 464.88325879 -1 466 C-8.2458949 465.59540688 -14.59719988 463.78074184 -21.4375 461.4375 C-22.47922363 461.08469971 -23.52094727 460.73189941 -24.59423828 460.3684082 C-31.29653533 458.05209024 -37.87992358 455.53407862 -44.375 452.6875 C-45.12322021 452.36257568 -45.87144043 452.03765137 -46.64233398 451.70288086 C-50.11461491 450.12308114 -51.83946684 449.24079973 -54 446 C-55.66215723 445.64486308 -57.3298936 445.31564775 -59 445 C-72.99675542 438.1571418 -93.24456207 427.13315689 -102 414 C-101.34 413.01 -100.68 412.02 -100 411 C-100.66 411.66 -101.32 412.32 -102 413 C-105.87815499 412.74880424 -107.80059831 410.5730763 -110.44921875 407.9140625 C-111.29291016 407.07141846 -112.13660156 406.22877441 -113.00585938 405.3605957 C-113.89080078 404.45784912 -114.77574219 403.55510254 -115.6875 402.625 C-116.59435547 401.70614014 -117.50121094 400.78728027 -118.43554688 399.84057617 C-124.34106605 393.80962342 -130.006932 387.81818566 -135 381 C-135.45246094 380.38624512 -135.90492188 379.77249023 -136.37109375 379.14013672 C-149.84295462 360.77379133 -161.33495224 341.52109564 -169 320 C-167.35 319.01 -165.7 318.02 -164 317 C-165.98 317.33 -167.96 317.66 -170 318 C-188.4366438 265.80679641 -194.44312461 199.80332993 -170 148 C-169.34 147.67 -168.68 147.34 -168 147 C-167.65940147 145.00122444 -167.32771827 143.00092775 -167 141 C-166.10733157 138.54375825 -165.18039015 136.1955421 -164.125 133.8125 C-163.82400391 133.12978027 -163.52300781 132.44706055 -163.21289062 131.74365234 C-157.66178781 119.53397422 -150.59862932 104.59862932 -141 95 C-140.484375 94.195625 -139.96875 93.39125 -139.4375 92.5625 C-129.62645519 77.81089334 -116.54987211 65.38498328 -104 53 C-102.68 53.66 -101.36 54.32 -100 55 C-100.495 53.02 -100.495 53.02 -101 51 C-91.0736105 41.44374706 -68.43353928 21 -54 21 C-54 20.34 -54 19.68 -54 19 C-12.13101362 0 -12.13101362 0 0 0 Z " fill="#FAFAFA" transform="translate(194,14)"/>
<path d="M0 0 C0.97069427 0.00237671 1.94138855 0.00475342 2.9414978 0.00720215 C19.23012805 0.06927251 34.87955625 1.17797359 50.875 4.4375 C51.62201172 4.58171387 52.36902344 4.72592773 53.13867188 4.87451172 C57.80200739 5.79844347 62.3361606 7.03959547 66.875 8.4375 C67.83132324 8.7272168 68.78764648 9.01693359 69.77294922 9.31542969 C103.93770719 19.80138631 133.54542632 35.5042259 160.875 58.4375 C161.87080078 59.23027344 161.87080078 59.23027344 162.88671875 60.0390625 C164.25245223 61.12782905 165.5715142 62.27493159 166.875 63.4375 C166.875 64.0975 166.875 64.7575 166.875 65.4375 C167.45822021 65.69692383 168.04144043 65.95634766 168.64233398 66.22363281 C172.70472377 68.4322935 175.70217696 71.92803541 178.9375 75.1875 C179.69683838 75.95102783 180.45617676 76.71455566 181.23852539 77.5012207 C187.70121003 84.09284355 193.43100365 90.9966544 198.875 98.4375 C199.72104192 99.56533846 200.56739736 100.69294181 201.4140625 101.8203125 C232.73775432 144.04051529 248.56903028 195.68861047 248.26611328 248.0078125 C248.24990911 251.33113981 248.26613535 254.65326966 248.28515625 257.9765625 C248.29747641 269.86640513 247.61975683 280.85724023 244.875 292.4375 C244.43138669 294.58418051 243.98988322 296.73129841 243.55078125 298.87890625 C232.45782038 349.63328053 207.54675872 392.69449946 170.49145508 428.84838867 C169.08596375 430.23010488 167.70655355 431.63825373 166.33203125 433.05078125 C163.5186734 435.78362965 160.53142605 438.22316503 157.4375 440.625 C156.82624268 441.1005835 156.21498535 441.57616699 155.58520508 442.06616211 C110.7925012 476.68940138 57.58159728 496.26120979 0.75 495.875 C-0.22401764 495.87162628 -1.19803528 495.86825256 -2.2015686 495.86477661 C-60.2060867 495.57537839 -115.95474433 475.19158703 -160.125 437.4375 C-160.88554687 436.78910156 -161.64609375 436.14070313 -162.4296875 435.47265625 C-175.57488905 423.94294243 -187.79485828 411.55672137 -198.125 397.4375 C-198.97104192 396.30966154 -199.81739736 395.18205819 -200.6640625 394.0546875 C-231.8095844 352.07463425 -247.91642232 300.39292654 -247.5625 248.3125 C-247.55912628 247.33848236 -247.55575256 246.36446472 -247.55227661 245.3609314 C-247.26287839 187.3564133 -226.87908703 131.60775567 -189.125 87.4375 C-188.47660156 86.67695312 -187.82820313 85.91640625 -187.16015625 85.1328125 C-175.63044243 71.98761095 -163.24422137 59.76764172 -149.125 49.4375 C-147.99716154 48.59145808 -146.86955819 47.74510264 -145.7421875 46.8984375 C-103.75410102 15.74695565 -52.08605979 -0.33914363 0 0 Z M-98.96533203 29.45898438 C-101.99865014 30.83333877 -105.05932188 32.13715868 -108.125 33.4375 C-108.125 34.0975 -108.125 34.7575 -108.125 35.4375 C-108.81980469 35.53289063 -109.51460937 35.62828125 -110.23046875 35.7265625 C-124.51620093 39.23533882 -144.15582752 53.77133029 -154.125 64.4375 C-154.125 65.7575 -154.125 67.0775 -154.125 68.4375 C-155.79166667 68.4375 -157.45833333 68.4375 -159.125 68.4375 C-161.45027538 70.15883982 -161.45027538 70.15883982 -163.72265625 72.5390625 C-164.60187744 73.41554443 -165.48109863 74.29202637 -166.38696289 75.19506836 C-167.32130208 76.15007068 -168.25479959 77.10589711 -169.1875 78.0625 C-169.65832001 78.53914093 -170.12914001 79.01578186 -170.61422729 79.50686646 C-179.833832 88.8425202 -187.85364016 98.50659363 -195.125 109.4375 C-195.455 109.7675 -195.785 110.0975 -196.125 110.4375 C-205.48606569 122.72389871 -222.125 145.62712539 -222.125 161.4375 C-222.785 161.7675 -223.445 162.0975 -224.125 162.4375 C-225.50336423 165.38882607 -226.4240186 168.53211069 -227.4375 171.625 C-227.74582764 172.55957031 -228.05415527 173.49414062 -228.37182617 174.45703125 C-244.54461389 224.82647132 -244.2190675 283.17462483 -224.125 332.4375 C-221.815 332.1075 -219.505 331.7775 -217.125 331.4375 C-219.105 332.4275 -221.085 333.4175 -223.125 334.4375 C-215.15159406 356.82437053 -203.30980605 378.14086158 -188.125 396.4375 C-187.46927002 397.2433252 -187.46927002 397.2433252 -186.80029297 398.06542969 C-180.60003069 405.67232524 -173.97415278 412.84865738 -167.125 419.875 C-166.39466553 420.63973633 -165.66433105 421.40447266 -164.91186523 422.19238281 C-163.87267944 423.23990723 -163.87267944 423.23990723 -162.8125 424.30859375 C-162.19761719 424.93693115 -161.58273438 425.56526855 -160.94921875 426.21264648 C-159.18473102 427.69182221 -159.18473102 427.69182221 -156.95703125 427.13305664 C-156.35246094 426.90352295 -155.74789062 426.67398926 -155.125 426.4375 C-154.795 426.4375 -154.465 426.4375 -154.125 426.4375 C-154.785 427.4275 -155.445 428.4175 -156.125 429.4375 C-146.01646901 439.22923942 -122.99218813 460.4375 -108.125 460.4375 C-107.135 461.9225 -107.135 461.9225 -106.125 463.4375 C-104.27574829 464.55722374 -104.27574829 464.55722374 -102.07421875 465.453125 C-101.24156494 465.81374023 -100.40891113 466.17435547 -99.55102539 466.54589844 C-98.64731201 466.92262695 -97.74359863 467.29935547 -96.8125 467.6875 C-95.8733374 468.08227539 -94.9341748 468.47705078 -93.96655273 468.88378906 C-32.27204661 494.38274431 34.25746887 493.15065631 95.9921875 468.44921875 C117.41612847 459.44184879 137.20525492 446.44923214 154.875 431.4375 C156.10377086 430.45783668 157.33286216 429.4785749 158.5625 428.5 C159.325625 427.819375 160.08875 427.13875 160.875 426.4375 C160.875 425.7775 160.875 425.1175 160.875 424.4375 C161.46128174 424.17573975 162.04756348 423.91397949 162.65161133 423.64428711 C164.99931048 422.37002809 166.56081889 421.01011122 168.44921875 419.12890625 C169.44405273 418.1402356 169.44405273 418.1402356 170.45898438 417.1315918 C171.50022461 416.07645386 171.50022461 416.07645386 172.5625 415 C173.27857422 414.2778833 173.99464844 413.5557666 174.73242188 412.81176758 C183.37235184 404.01027954 190.73706901 394.49284147 197.875 384.4375 C196.34927344 381.11114118 194.94155496 379.48186998 191.875 377.4375 C194.69211646 379.56571884 194.69211646 379.56571884 197.875 381.4375 C201.33533448 380.28405517 201.55746394 379.77905954 203.29296875 376.74609375 C203.73882324 375.97410645 204.18467773 375.20211914 204.64404297 374.40673828 C205.11213379 373.57126465 205.58022461 372.73579102 206.0625 371.875 C206.5486377 371.01890137 207.03477539 370.16280273 207.53564453 369.28076172 C214.25917851 357.33592462 220.27033591 345.36597995 224.875 332.4375 C224.545 332.1075 224.215 331.7775 223.875 331.4375 C224.535 331.1075 225.195 330.7775 225.875 330.4375 C226.91468919 327.69345228 227.83068421 324.98948935 228.6875 322.1875 C229.08062378 320.91072388 229.08062378 320.91072388 229.48168945 319.6081543 C243.30717681 273.80887579 243.65875035 226.55266113 230.875 180.4375 C230.64490234 179.60395996 230.41480469 178.77041992 230.17773438 177.91162109 C228.42757652 171.52120382 228.42757652 171.52120382 225.875 165.4375 C222.9522138 164.04015202 222.01201401 164.39182866 218.875 165.4375 C220.525 164.7775 222.175 164.1175 223.875 163.4375 C223.27028846 158.23207771 221.62874426 153.97829346 219.5 149.25 C219.15348389 148.47551514 218.80696777 147.70103027 218.44995117 146.90307617 C213.05147692 135.14763028 206.53695414 123.8605187 198.875 113.4375 C196.895 114.0975 194.915 114.7575 192.875 115.4375 C194.855 113.9525 194.855 113.9525 196.875 112.4375 C190.75746707 94.54536069 169.11845263 76.17596914 154.875 64.4375 C153.60462891 63.33341797 153.60462891 63.33341797 152.30859375 62.20703125 C134.59400452 46.15337205 134.59400452 46.15337205 113.875 37.4375 C111.895 41.0675 109.915 44.6975 107.875 48.4375 C109.20963542 45.93098958 110.54427083 43.42447917 111.87890625 40.91796875 C113.21228333 38.37105424 113.21228333 38.37105424 111.875 35.4375 C109.72044093 34.06923117 107.65921737 32.92696351 105.375 31.8125 C104.67213867 31.46840088 103.96927734 31.12430176 103.24511719 30.76977539 C39.78567347 0.69616385 -35.23488724 0.39231812 -98.96533203 29.45898438 Z " fill="#030303" transform="translate(248.125,-0.4375)"/>
<path d="M0 0 C1.04003174 0.12060791 1.04003174 0.12060791 2.10107422 0.24365234 C5.35899923 0.62120325 8.61699955 0.99810067 11.875 1.375 C13.05199463 1.51147949 14.22898926 1.64795898 15.44165039 1.78857422 C20.83569531 2.41219295 26.22982492 3.03079657 31.62890625 3.609375 C32.45084473 3.69783691 33.2727832 3.78629883 34.11962891 3.87744141 C35.63071917 4.03883234 37.14210419 4.19749398 38.65380859 4.35302734 C41.5981095 4.6682099 44.17884 5.05961333 47 6 C47.17700283 11.97044146 46.59008292 17.34831902 45.375 23.1875 C45.11420654 24.46778076 45.11420654 24.46778076 44.84814453 25.77392578 C42.75964419 35.6587745 39.95955429 45.34506061 37 55 C36.65195312 56.16789062 36.30390625 57.33578125 35.9453125 58.5390625 C35 61 35 61 33 62 C33.33 62.66 33.66 63.32 34 64 C32.88977983 67.59014219 31.26214052 71.00034124 29.75 74.4375 C29.30124512 75.46415771 28.85249023 76.49081543 28.39013672 77.54858398 C22.98625825 89.63777877 16.43744844 101.05138403 9 112 C4.25 110.125 4.25 110.125 2 109 C3.65 110.32 5.3 111.64 7 113 C5.51353258 117.47610415 3.04182347 120.86352025 0.125 124.5 C-0.3589624 125.10875977 -0.8429248 125.71751953 -1.34155273 126.34472656 C-6.58474084 132.8556003 -12.21780128 138.96850193 -18 145 C-18.47953125 145.5067627 -18.9590625 146.01352539 -19.453125 146.53564453 C-25.43361089 152.84267481 -25.43361089 152.84267481 -28 155 C-28.99 155 -29.98 155 -31 155 C-31 155.99 -31 156.98 -31 158 C-32.78665922 159.811134 -34.53918671 161.39569822 -36.5 163 C-37.08023926 163.48130371 -37.66047852 163.96260742 -38.25830078 164.45849609 C-60.7691822 182.80710063 -99.83246379 210 -130 210 C-131.43156209 204.25433419 -132.85550251 198.50685309 -134.27246094 192.75756836 C-134.75540302 190.80262528 -135.24041156 188.84819148 -135.72753906 186.89428711 C-136.42799087 184.08318816 -137.12095287 181.27033222 -137.8125 178.45703125 C-138.14060669 177.15050346 -138.14060669 177.15050346 -138.4753418 175.81758118 C-139.45413644 171.80636945 -140.29827776 168.16470318 -140 164 C-139.32646484 163.764021 -138.65292969 163.52804199 -137.95898438 163.28491211 C-125.69883794 158.97359442 -113.54528224 154.61706697 -101.71875 149.21484375 C-99 148 -99 148 -98 148 C-97.63261719 147.59523438 -97.26523437 147.19046875 -96.88671875 146.7734375 C-94.17722335 144.22662402 -90.99380076 142.51350579 -87.8125 140.625 C-80.74543689 136.35136161 -74.40006907 131.49783957 -68.1418457 126.11572266 C-67.19571411 125.31207275 -67.19571411 125.31207275 -66.23046875 124.4921875 C-65.67770264 124.01120605 -65.12493652 123.53022461 -64.55541992 123.03466797 C-63 122 -63 122 -60 122 C-57.8125 123.5 -57.8125 123.5 -56 125 C-57.32 123.68 -58.64 122.36 -60 121 C-58.93012423 117.79037268 -58.41610306 117.30094163 -55.875 115.3125 C-48.14507399 108.94957631 -42.39334596 100.69828586 -36.54296875 92.65234375 C-35.99769531 91.92144531 -35.45242188 91.19054687 -34.890625 90.4375 C-34.40625977 89.77621094 -33.92189453 89.11492187 -33.42285156 88.43359375 C-32.95331055 87.96050781 -32.48376953 87.48742187 -32 87 C-31.01 87 -30.02 87 -29 87 C-29.33 86.01 -29.66 85.02 -30 84 C-28.62222963 81.4295782 -27.18730692 79.01743384 -25.625 76.5625 C-21.01381222 69.09278568 -17.32166394 61.44225903 -13.95751953 53.33813477 C-13.43907471 52.11888306 -13.43907471 52.11888306 -12.91015625 50.875 C-12.61246338 50.15054688 -12.31477051 49.42609375 -12.00805664 48.6796875 C-11 47 -11 47 -8 46 C-8.66 45.34 -9.32 44.68 -10 44 C-9.75092896 43.16359985 -9.75092896 43.16359985 -9.49682617 42.31030273 C-5.35005338 28.30793257 -1.72740502 14.53238902 0 0 Z " fill="#F9F9F9" transform="translate(439,269)"/>
<path d="M0 0 C6.72362713 1.18850206 13.07308905 2.82634274 19.5 5.125 C20.35078125 5.42631836 21.2015625 5.72763672 22.078125 6.03808594 C28.14660993 8.23073008 34.09738841 10.64483501 40 13.25 C40.74701172 13.57887207 41.49402344 13.90774414 42.26367188 14.24658203 C45.82166994 15.85854277 48.98896462 17.4594389 52 20 C50.78322054 23.7372512 49.46233512 27.3441622 48 31 C49.65 27.7 51.3 24.4 53 21 C58.28074387 22.46413148 62.35469436 24.8884254 66.875 27.875 C67.61024902 28.35606201 68.34549805 28.83712402 69.10302734 29.33276367 C81.48048687 37.52936307 93.59402086 46.37057959 104 57 C105.22220039 58.20231048 106.44633083 59.4026606 107.671875 60.6015625 C115.25968556 68.06804959 122.5889001 75.47808807 129 84 C130.05380859 85.38058594 130.05380859 85.38058594 131.12890625 86.7890625 C134.84613192 91.83750597 134.84613192 91.83750597 136 94 C135 97 135 97 134 98 C135.32 97.67 136.64 97.34 138 97 C146.8212846 108.62540156 153.64510756 121.59901461 159.625 134.875 C159.96781006 135.62974609 160.31062012 136.38449219 160.66381836 137.16210938 C162.22078321 140.7194964 163 143.06015305 163 147 C162.34 147.33 161.68 147.66 161 148 C161.89912109 148.00966797 161.89912109 148.00966797 162.81640625 148.01953125 C165 149 165 149 166.52734375 152.26171875 C167.01783736 153.73030932 167.48629294 155.20636717 167.9375 156.6875 C168.18910889 157.48043457 168.44071777 158.27336914 168.69995117 159.09033203 C172.86552201 172.6228718 176.66987169 186.7744709 177 201 C161.405746 203.70786923 145.74443063 205.41928831 130 207 C129.81207886 205.98969727 129.81207886 205.98969727 129.62036133 204.95898438 C127.31512512 192.68948229 124.92915719 180.65249766 120.91796875 168.81640625 C120 166 120 166 120 164 C120.33 163.67 120.66 163.34 121 163 C120.34 163 119.68 163 119 163 C118.66959717 162.22474976 118.66959717 162.22474976 118.33251953 161.43383789 C113.86467369 151.03145235 109.15857172 141.01664968 103.18798828 131.38305664 C101.26455682 128.26450947 99.75617768 125.58498743 99 122 C98.34 122 97.68 122 97 122 C95.58355885 120.25714852 94.24265534 118.45267785 92.9375 116.625 C89.2537319 111.55972491 85.32577394 106.86942516 81.07421875 102.26171875 C79.19883382 100.2168075 77.40308877 98.12931618 75.625 96 C73.15708898 92.91629169 73.15708898 92.91629169 70 91 C70.61277612 88.03824877 71.25372522 86.61941217 73 84 C71.68 85.32 70.36 86.64 69 88 C66.2047363 86.69216657 63.86275286 85.23598642 61.453125 83.3125 C60.7813623 82.78350098 60.10959961 82.25450195 59.41748047 81.70947266 C58.70221191 81.14534668 57.98694336 80.5812207 57.25 80 C36.8347529 64.18969586 13.97078307 52.78069542 -11 46 C-9.57887609 37.28840444 -7.58295756 28.74840381 -5.48608398 20.1809082 C-4.9311024 17.91133733 -4.38223964 15.64034471 -3.83398438 13.36914062 C-3.48212772 11.92178819 -3.12992714 10.47451932 -2.77734375 9.02734375 C-2.61378891 8.3503392 -2.45023407 7.67333466 -2.28172302 6.97581482 C-1.11535295 2.23070589 -1.11535295 2.23070589 0 0 Z " fill="#FAFAFA" transform="translate(309,16)"/>
<path d="M0 0 C6.45808699 3.49134675 12.377316 7.65182457 18.375 11.875 C25.19872622 16.66404744 32.03615303 21.41628476 39 26 C37.30303591 30.46991216 34.98394735 34.26570232 32.375 38.25 C26.61677837 47.22886835 21.38342435 56.84972695 18 67 C17.01 67 16.02 67 15 67 C15.99 67.99 15.99 67.99 17 69 C16.62488281 70.093125 16.24976563 71.18625 15.86328125 72.3125 C11.51045296 85.3495494 8.5806444 98.5096381 6 112 C4.32550781 111.81824219 4.32550781 111.81824219 2.6171875 111.6328125 C-9.91111882 110.286673 -22.44928636 109.11917192 -35 108 C-21.8 109.65 -8.6 111.3 5 113 C5 128.51 5 144.02 5 160 C-1.27 160.825 -7.54 161.65 -14 162.5 C-15.96324219 162.76103516 -17.92648438 163.02207031 -19.94921875 163.29101562 C-21.5285932 163.49649869 -23.10801718 163.70160163 -24.6875 163.90625 C-25.48865234 164.01420898 -26.28980469 164.12216797 -27.11523438 164.23339844 C-32.12208824 164.8760875 -36.95167695 165.10096646 -42 165 C-43.21589801 156.41089645 -43.20082361 147.84272392 -43.1875 139.1875 C-43.18656342 138.40555267 -43.18562683 137.62360535 -43.18466187 136.81796265 C-43.1117416 108.73791162 -40.15336469 77.75713093 -28 52 C-27.01 51.505 -27.01 51.505 -26 51 C-25.65940147 49.00122444 -25.32771827 47.00092775 -25 45 C-24.10733157 42.54375825 -23.18039015 40.1955421 -22.125 37.8125 C-21.67350586 36.78842041 -21.67350586 36.78842041 -21.21289062 35.74365234 C-15.49931261 23.17660921 -8.30727334 11.02911034 0 0 Z " fill="#FBFBFB" transform="translate(52,110)"/>
<path d="M0 0 C1.18270981 -0.00151062 1.18270981 -0.00151062 2.38931274 -0.00305176 C21.66400128 0.01351332 39.98047579 2.31983722 58.625 7.25 C55.33935293 22.6782558 51.50041955 37.96071831 47.625 53.25 C42.98371485 52.71490038 38.38785258 52.05818657 33.78125 51.27734375 C9.72586053 47.27838451 -14.1237528 46.84566963 -38.17651367 51.28955078 C-39.64262337 51.55942307 -39.64262337 51.55942307 -41.13835144 51.83474731 C-41.87644547 51.9717807 -42.61453949 52.10881409 -43.375 52.25 C-44.97141227 46.04156421 -46.55500165 39.82996087 -48.12963867 33.6159668 C-48.66703974 31.50160459 -49.20739243 29.38799033 -49.75073242 27.27514648 C-50.53036806 24.24133146 -51.29941431 21.20500141 -52.06640625 18.16796875 C-52.31217911 17.22100632 -52.55795197 16.27404388 -52.81117249 15.29838562 C-53.03147629 14.41769913 -53.25178009 13.53701263 -53.47875977 12.62963867 C-53.6763942 11.85464523 -53.87402863 11.07965179 -54.07765198 10.28117371 C-54.375 8.25 -54.375 8.25 -53.375 5.25 C-49.8144061 4.59336862 -46.25124204 3.95180568 -42.6875 3.3125 C-41.69943359 3.13009766 -40.71136719 2.94769531 -39.69335938 2.75976562 C-26.50352468 0.41206042 -13.3599215 0.011939 0 0 Z " fill="#FDFDFD" transform="translate(249.375,7.75)"/>
<path d="M0 0 C7.75342058 3.38655152 13.91011984 10.57920437 19.26953125 16.95703125 C21.84833347 20.00153139 24.58305818 22.90360083 27.30078125 25.82421875 C30.2177406 29.55926785 31 32.26049471 31 37 C29.23180773 38.84598076 27.51340065 40.43377449 25.5625 42.0625 C19.66895954 47.21358144 14.77885468 52.78931291 10 59 C8.95585938 60.33224609 8.95585938 60.33224609 7.890625 61.69140625 C6.25080154 63.78710064 4.62066869 65.88948289 3 68 C-8.00590392 65.55149553 -17.07662898 57.95719369 -25.99755859 51.44140625 C-27.31873026 50.49039461 -28.655034 49.5600161 -30.00634766 48.65234375 C-35.7427692 44.7716924 -35.7427692 44.7716924 -37 41 C-25.7338526 26.20763718 -13.22452981 13.04846359 0 0 Z " fill="#F6F6F6" transform="translate(90,67)"/>
<path d="M0 0 C6.45808699 3.49134675 12.377316 7.65182457 18.375 11.875 C25.19872622 16.66404744 32.03615303 21.41628476 39 26 C37.30303591 30.46991216 34.98394735 34.26570232 32.375 38.25 C26.61677837 47.22886835 21.38342435 56.84972695 18 67 C8.54311792 64.45980667 -0.50595744 60.84064446 -9.625 57.3125 C-11.21731853 56.69953356 -12.80976548 56.08690065 -14.40234375 55.47460938 C-18.26972049 53.98691368 -22.1353316 52.4947164 -26 51 C-25.28302245 46.27002035 -24.05727557 42.17552541 -22.125 37.8125 C-21.82400391 37.12978027 -21.52300781 36.44706055 -21.21289062 35.74365234 C-15.49931261 23.17660921 -8.30727334 11.02911034 0 0 Z " fill="#FDFDFD" transform="translate(52,110)"/>
<path d="M0 0 C1.79784634 0.18536068 3.58770933 0.44867422 5.37109375 0.7421875 C6.50482422 0.92136719 7.63855469 1.10054688 8.80664062 1.28515625 C11.16128001 1.66767432 13.51547779 2.05292462 15.86914062 2.44140625 C25.70182583 3.98787431 34.90197836 4.4389988 45 5 C45 20.51 45 36.02 45 52 C23.06069712 52 23.06069712 52 12.4375 50.625 C10.83165039 50.43550781 10.83165039 50.43550781 9.19335938 50.2421875 C-8.97787818 48.02212182 -8.97787818 48.02212182 -11 46 C-10.49084301 40.24516509 -9.349501 34.76106899 -7.96875 29.16015625 C-7.77277222 28.35259384 -7.57679443 27.54503143 -7.37487793 26.71299744 C-6.96350971 25.0225734 -6.54994836 23.33268168 -6.13427734 21.64331055 C-5.49615687 19.0468627 -4.86676564 16.44840457 -4.23828125 13.84960938 C-3.83645106 12.20299959 -3.43412533 10.55651063 -3.03125 8.91015625 C-2.84268433 8.13108414 -2.65411865 7.35201202 -2.45983887 6.54933167 C-1.11526419 1.11526419 -1.11526419 1.11526419 0 0 Z " fill="#FDFDFD" transform="translate(206,435)"/>
<path d="M0 0 C2.84299853 9.67310637 5.39818935 19.38155988 7.75 29.1875 C8.06883085 30.49548649 8.3878407 31.80342936 8.70703125 33.11132812 C9.15369141 34.96467773 9.15369141 34.96467773 9.609375 36.85546875 C9.87717773 37.96559326 10.14498047 39.07571777 10.42089844 40.21948242 C11 43 11 43 11 46 C-11.75161647 51.1117382 -11.75161647 51.1117382 -23.1875 52.3125 C-23.89044189 52.38839355 -24.59338379 52.46428711 -25.31762695 52.54248047 C-31.92973439 53.15888291 -38.28266717 53 -45 53 C-45 37.49 -45 21.98 -45 6 C-41.019375 5.566875 -37.03875 5.13375 -32.9375 4.6875 C-24.10131912 3.69890577 -15.43033869 2.51266362 -6.7578125 0.55078125 C-4 0 -4 0 0 0 Z " fill="#FDFDFD" transform="translate(297,434)"/>
<path d="M0 0 C3.52575803 4.0625998 5.88957547 8.30894503 8.29296875 13.07421875 C8.88021477 14.22178398 8.88021477 14.22178398 9.47932434 15.39253235 C10.72074347 17.82149696 11.95421168 20.25439868 13.1875 22.6875 C14.02747379 24.33425023 14.86796335 25.98073749 15.70898438 27.62695312 C20.80298649 37.60597297 20.80298649 37.60597297 23 42 C-14.60638298 62 -14.60638298 62 -30 62 C-31.43156209 56.25433419 -32.85550251 50.50685309 -34.27246094 44.75756836 C-34.75540302 42.80262528 -35.24041156 40.84819148 -35.72753906 38.89428711 C-36.42799087 36.08318816 -37.12095287 33.27033222 -37.8125 30.45703125 C-38.14060669 29.15050346 -38.14060669 29.15050346 -38.4753418 27.81758118 C-39.45413644 23.80636945 -40.29827776 20.16470318 -40 16 C-38.98184204 15.64603149 -38.98184204 15.64603149 -37.94311523 15.28491211 C-24.9930901 10.76144586 -12.25508518 6.19728698 0 0 Z " fill="#FDFDFD" transform="translate(339,417)"/>
<path d="M0 0 C0.98353922 9.17111117 1.15557186 18.26348597 1.13037109 27.47436523 C1.12496882 29.82607345 1.13037137 32.1775941 1.13671875 34.52929688 C1.13605853 36.04687541 1.13477853 37.56445384 1.1328125 39.08203125 C1.13483673 39.77383987 1.13686096 40.4656485 1.13894653 41.17842102 C1.11806809 45.55965923 0.70527929 49.68953189 0 54 C-10.51852088 53.61042515 -20.9231083 52.76029707 -31.375 51.5 C-32.46224365 51.36940186 -33.5494873 51.23880371 -34.66967773 51.10424805 C-38.87685386 50.58170175 -42.88009887 50.02997528 -47 49 C-47 34.48 -47 19.96 -47 5 C-37.595 3.7625 -37.595 3.7625 -28 2.5 C-26.03675781 2.23896484 -24.07351563 1.97792969 -22.05078125 1.70898438 C-20.4714068 1.50350131 -18.89198282 1.29839837 -17.3125 1.09375 C-16.11077148 0.93181152 -16.11077148 0.93181152 -14.88476562 0.76660156 C-9.87791176 0.1239125 -5.04832305 -0.10096646 0 0 Z " fill="#FDFDFD" transform="translate(487,219)"/>
<path d="M0 0 C10.36162362 2.92250923 10.36162362 2.92250923 13 7 C12.75 9.75 12.75 9.75 12 12 C11.01 12.33 10.02 12.66 9 13 C9.226875 14.0725 9.45375 15.145 9.6875 16.25 C10 20 10 20 8.9375 22.4375 C7 24 7 24 4.375 24.5 C-0.16835808 23.82690991 -3.91216202 22.03483491 -8 20 C-7.0443848 17.41563186 -6.08562111 14.83250699 -5.125 12.25 C-4.85558594 11.52039062 -4.58617187 10.79078125 -4.30859375 10.0390625 C-3.02634981 6.59889584 -1.75382129 3.23520433 0 0 Z " fill="#000000" transform="translate(325,38)"/>
<path d="M0 0 C0.66 0 1.32 0 2 0 C2.33 0.99 2.66 1.98 3 3 C1.95631968 4.69598052 0.91188994 6.39151924 -0.140625 8.08203125 C-1.52972843 11.18225754 -0.78298947 13.80279298 0 17 C2.97 15.68 5.94 14.36 9 13 C9.33 13.99 9.66 14.98 10 16 C7.39761208 17.48237286 4.79321772 18.96100131 2.1875 20.4375 C1.44951172 20.85837891 0.71152344 21.27925781 -0.04882812 21.71289062 C-0.76103516 22.11572266 -1.47324219 22.51855469 -2.20703125 22.93359375 C-3.18893433 23.4913147 -3.18893433 23.4913147 -4.19067383 24.06030273 C-6 25 -6 25 -9 26 C-10.0384211 24.28133783 -11.05514635 22.54955402 -12.0625 20.8125 C-12.91521484 19.36810547 -12.91521484 19.36810547 -13.78515625 17.89453125 C-15.15287388 14.63575709 -15.17573421 13.28864787 -14 10 C-12 8 -12 8 -9 7.875 C-8.01 7.91625 -7.02 7.9575 -6 8 C-5.34 8 -4.68 8 -4 8 C-2.68 5.36 -1.36 2.72 0 0 Z " fill="#000000" transform="translate(67,333)"/>
<path d="M0 0 C0.66 0 1.32 0 2 0 C2.33923576 2.35344806 2.67150534 4.7075484 3 7.0625 C3.09539062 7.71927734 3.19078125 8.37605469 3.2890625 9.05273438 C3.88887674 13.40138763 4.09127093 17.61329071 4 22 C1.70703125 21.90234375 1.70703125 21.90234375 -1 21 C-2.80078125 18.12890625 -2.80078125 18.12890625 -4.3125 14.5625 C-4.82425781 13.38816406 -5.33601563 12.21382813 -5.86328125 11.00390625 C-7 8 -7 8 -7 6 C-7.66 6 -8.32 6 -9 6 C-9.12375 7.299375 -9.2475 8.59875 -9.375 9.9375 C-9.89863328 14.71849952 -10.86313835 19.33114101 -12 24 C-13.32 24 -14.64 24 -16 24 C-17.36766005 17.01563899 -18.41523944 10.09406894 -19 3 C-18.01 2.67 -17.02 2.34 -16 2 C-15.34 6.29 -14.68 10.58 -14 15 C-12.68883471 11.72208679 -11.47235693 8.52945067 -10.375 5.1875 C-10.11460937 4.39730469 -9.85421875 3.60710937 -9.5859375 2.79296875 C-9.39257812 2.20128906 -9.19921875 1.60960937 -9 1 C-8.34 1 -7.68 1 -7 1 C-4.69 5.62 -2.38 10.24 0 15 C-0.185625 12.710625 -0.37125 10.42125 -0.5625 8.0625 C-0.75311872 5.71153582 -0.90968426 3.35694954 -1 1 C-0.67 0.67 -0.34 0.34 0 0 Z " fill="#000000" transform="translate(281,443)"/>
<path d="M0 0 C0.99 0.33 1.98 0.66 3 1 C1.42686828 5.72843614 -1.20641235 9.3433843 -4.125 13.3125 C-4.59292969 13.95767578 -5.06085938 14.60285156 -5.54296875 15.26757812 C-6.6905929 16.84848894 -7.84465477 18.42472301 -9 20 C-9.33 19.34 -9.66 18.68 -10 18 C-10.7425 17.731875 -11.485 17.46375 -12.25 17.1875 C-15.7643026 15.66996024 -17.66040109 14.02771623 -20 11 C-20.125 7.875 -20.125 7.875 -19 5 C-16.875 2.9375 -16.875 2.9375 -14 2 C-10.4375 3.1875 -10.4375 3.1875 -7 5 C-6.195625 5.391875 -5.39125 5.78375 -4.5625 6.1875 C-4.046875 6.455625 -3.53125 6.72375 -3 7 C-2.690625 6.21625 -2.38125 5.4325 -2.0625 4.625 C-1 2 -1 2 0 0 Z " fill="#000000" transform="translate(143,416)"/>
<path d="M0 0 C2.35620437 3.53430656 2.48991613 4.83571287 2 9 C0.2442259 12.44651952 -0.84544447 14.4967322 -4.4375 16.0625 C-8.01243903 15.97530637 -10.47956957 14.52043043 -13 12 C-13.38189241 7.03539862 -13.15313973 3.94142466 -10 0 C-6.43148413 -2.83020224 -3.95257645 -1.80443708 0 0 Z " fill="#FFFFFF" transform="translate(182,437)"/>
<path d="M0 0 C3.88452659 3.61240564 6.63254267 7.2509787 9.3125 11.8125 C9.67150391 12.40998047 10.03050781 13.00746094 10.40039062 13.62304688 C11.27344624 15.07813956 12.13766691 16.53852729 13 18 C12.01 18.99 11.02 19.98 10 21 C5.05 18.36 0.1 15.72 -5 13 C-2.03 17.95 0.94 22.9 4 28 C3.01 28.99 2.02 29.98 1 31 C-1.60499124 29.54312342 -4.20901482 28.08456349 -6.8125 26.625 C-7.55048828 26.2125 -8.28847656 25.8 -9.04882812 25.375 C-9.76103516 24.97539063 -10.47324219 24.57578125 -11.20703125 24.1640625 C-11.8616333 23.79748535 -12.51623535 23.4309082 -13.19067383 23.05322266 C-14.83176306 22.09793201 -16.4200344 21.0533104 -18 20 C-17.01 19.34 -16.02 18.68 -15 18 C-10.71 20.31 -6.42 22.62 -2 25 C-3.4540625 22.40125 -3.4540625 22.40125 -4.9375 19.75 C-6.74550455 16.51867272 -8.31238981 13.65564909 -9 10 C-6 9 -6 9 -2.64453125 10.43359375 C-1.3619696 11.09148807 -0.08475943 11.75989743 1.1875 12.4375 C1.84169922 12.77587891 2.49589844 13.11425781 3.16992188 13.46289062 C4.78459299 14.29969098 6.39292763 15.14869746 8 16 C7.43410156 15.15695313 6.86820313 14.31390625 6.28515625 13.4453125 C5.55167969 12.34960938 4.81820312 11.25390625 4.0625 10.125 C3.33160156 9.03445312 2.60070312 7.94390625 1.84765625 6.8203125 C0 4 0 4 -1 2 C-0.67 1.34 -0.34 0.68 0 0 Z " fill="#040404" transform="translate(94,86)"/>
<path d="M0 0 C0.66 0.33 1.32 0.66 2 1 C2.33 1.99 2.66 2.98 3 4 C3.33 3.34 3.66 2.68 4 2 C4.66 2 5.32 2 6 2 C7.65560842 4.532107 8.0013887 5.9333422 7.9375 9 C6.74780657 12.80701899 5.36946338 13.93237474 2 16 C-0.85549576 16.97504733 -2.30869051 17.2172687 -5.1875 16.3125 C-7.41759141 14.69760622 -8.17402054 13.62811646 -9 11 C-8.90561012 7.31879455 -8.06342762 6.0734425 -5.625 3.25 C-3 1 -3 1 0 0 Z " fill="#FDFDFD" transform="translate(92,378)"/>
<path d="M0 0 C1.32 0.33 2.64 0.66 4 1 C4.83714909 4.29070841 5.66906896 7.58271647 6.5 10.875 C6.73847656 11.81214844 6.97695313 12.74929687 7.22265625 13.71484375 C7.44824219 14.61074219 7.67382812 15.50664063 7.90625 16.4296875 C8.11572266 17.25710449 8.32519531 18.08452148 8.54101562 18.93701172 C9 21 9 21 9 23 C7.0625 22.375 7.0625 22.375 5 21 C4.25 17.875 4.25 17.875 4 15 C2.88625 15.020625 1.7725 15.04125 0.625 15.0625 C-3 15 -3 15 -5 14 C-5.2475 14.804375 -5.495 15.60875 -5.75 16.4375 C-6.36875 17.7059375 -6.36875 17.7059375 -7 19 C-9.078125 19.66015625 -9.078125 19.66015625 -11 20 C-9.92177933 17.78904188 -8.83762596 15.58132694 -7.75 13.375 C-7.44964844 12.75753906 -7.14929688 12.14007813 -6.83984375 11.50390625 C-4.82957212 7.44059125 -2.58868299 3.7226636 0 0 Z " fill="#000000" transform="translate(278,27)"/>
<path d="M0 0 C0.99 0 1.98 0 3 0 C5.64 4.95 8.28 9.9 11 15 C12.88474003 13.11525997 12.69332 9.97253598 13.0625 7.4375 C13.23910156 6.23996094 13.41570312 5.04242188 13.59765625 3.80859375 C13.73042969 2.88175781 13.86320312 1.95492188 14 1 C14.99 1.33 15.98 1.66 17 2 C16.69385143 5.12565662 16.37900284 8.25037623 16.0625 11.375 C15.97548828 12.26445312 15.88847656 13.15390625 15.79882812 14.0703125 C15.71181641 14.92109375 15.62480469 15.771875 15.53515625 16.6484375 C15.456604 17.43395996 15.37805176 18.21948242 15.29711914 19.02880859 C15 21 15 21 14 23 C13.01 23 12.02 23 11 23 C8.36 18.05 5.72 13.1 3 8 C1.11525997 9.88474003 1.30668 13.02746402 0.9375 15.5625 C0.76089844 16.76003906 0.58429688 17.95757812 0.40234375 19.19140625 C0.26957031 20.11824219 0.13679687 21.04507812 0 22 C-0.99 21.67 -1.98 21.34 -3 21 C-2.69385143 17.87434338 -2.37900284 14.74962377 -2.0625 11.625 C-1.97548828 10.73554688 -1.88847656 9.84609375 -1.79882812 8.9296875 C-1.71181641 8.07890625 -1.62480469 7.228125 -1.53515625 6.3515625 C-1.456604 5.56604004 -1.37805176 4.78051758 -1.29711914 3.97119141 C-1 2 -1 2 0 0 Z " fill="#000000" transform="translate(217,444)"/>
<path d="M0 0 C2.86555194 1.33765391 3.85318575 2.47749326 6 5 C7.32833216 9.64916255 7.31520906 12.7351412 5 17 C4.34 17.66 3.68 18.32 3 19 C0.875 18.625 0.875 18.625 -1 18 C-0.34 17.484375 0.32 16.96875 1 16.4375 C3.31540104 14.05912084 3.31540104 14.05912084 3.4375 10.4375 C3.29893092 7.11777744 3.29893092 7.11777744 1.75390625 5.3125 C-1.04004568 3.22170301 -3.5214702 3.52590458 -6.90234375 3.65234375 C-9.15337335 3.85223882 -9.15337335 3.85223882 -11.0625 5.625 C-12.23149878 8.58646357 -12.27466391 10.84136499 -12 14 C-11.67 14.66 -11.34 15.32 -11 16 C-8.97536745 16.65213292 -8.97536745 16.65213292 -7 17 C-7 15.02 -7 13.04 -7 11 C-6.01 11 -5.02 11 -4 11 C-4 13.97 -4 16.94 -4 20 C-11.39842329 20.48514251 -11.39842329 20.48514251 -13.9375 18.4375 C-15.92314142 13.88220498 -16.53934239 10.47609497 -14.8125 5.75 C-10.93307364 -0.13602621 -6.86543052 -1.24718028 0 0 Z " fill="#000000" transform="translate(464,239)"/>
<path d="M0 0 C3.29965664 1.5507703 5.21954261 2.72021008 7 6 C7.0625 8.4375 7.0625 8.4375 6 11 C3.04127713 14.09633789 1.12672053 15.79719031 -3.125 16.5625 C-6.66366276 15.87015294 -7.95083541 14.95079702 -10 12 C-9.81458158 9.0333052 -9.0174274 8.01805333 -6.93359375 5.859375 C-6.10988281 5.16328125 -5.28617187 4.4671875 -4.4375 3.75 C-3.61121094 3.04359375 -2.78492188 2.3371875 -1.93359375 1.609375 C-1.29550781 1.07828125 -0.65742188 0.5471875 0 0 Z " fill="#FFFFFF" transform="translate(407,96)"/>
<path d="M0 0 C0.66 0.33 1.32 0.66 2 1 C2.103125 1.598125 2.20625 2.19625 2.3125 2.8125 C3.3015917 5.95960996 5.41478403 7.06108802 8 9 C9.60306924 12.20613847 9.48740461 15.52139997 9 19 C6.90637823 22.43952148 4.88092169 24.78028175 1 26 C-3.23244524 26.4617213 -5.27106961 26.47538938 -8.875 24.125 C-11.57447418 21.42552582 -11.94399896 20.58241079 -12.3125 16.75 C-11.94328153 12.31937834 -10.83161153 10.38220266 -8 7 C-4.9744375 4.91992578 -3.85524891 5 0 5 C-0.2784375 4.0409375 -0.2784375 4.0409375 -0.5625 3.0625 C-0.706875 2.381875 -0.85125 1.70125 -1 1 C-0.67 0.67 -0.34 0.34 0 0 Z M-8 11 C-9.90173306 13.45640521 -10.03883077 14.46931278 -9.8125 17.5625 C-8.91416469 20.25750594 -8.30185003 21.3558214 -6 23 C-3.68805807 24.09616096 -3.68805807 24.09616096 -1 24 C2.10626672 22.35550585 4.3346429 20.89678566 6.4375 18.0625 C7.35400684 14.70197492 6.52697596 12.05395192 5 9 C4.34 9 3.68 9 3 9 C2.67 9.66 2.34 10.32 2 11 C1.34 9.68 0.68 8.36 0 7 C-2.76153727 7 -5.73989775 9.4524947 -8 11 Z " fill="#000000" transform="translate(93,371)"/>
<path d="M0 0 C2.75602178 2.75602178 4.00872559 4.63941344 5.6875 8.0625 C6.34298828 9.37927734 6.34298828 9.37927734 7.01171875 10.72265625 C8 13 8 13 8 15 C4.30209954 13.76736651 4.0645154 12.79947549 2.3125 9.4375 C1.87550781 8.61121094 1.43851562 7.78492188 0.98828125 6.93359375 C0.49908203 5.97646484 0.49908203 5.97646484 0 5 C-1.98 5.99 -1.98 5.99 -4 7 C-2.7874262 10.72433382 -1.49140021 14.37802806 0 18 C-0.99 18.33 -1.98 18.66 -3 19 C-3.67154933 17.71086513 -4.33708859 16.41859796 -5 15.125 C-5.37125 14.40570313 -5.7425 13.68640625 -6.125 12.9453125 C-7 11 -7 11 -7 9 C-9.31 9.66 -11.62 10.32 -14 11 C-12.02 15.29 -10.04 19.58 -8 24 C-9.32 23.67 -10.64 23.34 -12 23 C-14.41497064 18.82919061 -16.10253132 14.44180169 -18 10 C-12.06 6.7 -6.12 3.4 0 0 Z " fill="#000000" transform="translate(442,139)"/>
<path d="M0 0 C2.97361628 1.78152067 5.42653612 3.85307225 7 7 C7.0450914 11.59030461 6.57225792 15.11392322 4.0625 19 C1.35547097 21.62499784 0.50268437 21.96206156 -3.3125 22.25 C-7.24058469 21.98368917 -8.95647943 21.43481646 -12 19 C-14.57073939 15.57234748 -14.43037452 12.16028704 -14 8 C-10.47504818 1.55784668 -7.46085198 -0.88518583 0 0 Z M-9 5 C-11.55782451 8.41043267 -11.37641413 11.85944459 -11 16 C-9.46609879 18.42194927 -8.30591626 18.88729401 -5.625 19.875 C-2.15464588 20.04025496 -0.7092465 19.12346347 2 17 C4.32250123 13.7927364 4.4044954 10.88315586 4 7 C2.53937111 4.15561742 1.60149532 3.23743236 -1.375 2.0625 C-4.82338798 1.98039552 -6.30641138 2.88880892 -9 5 Z " fill="#000000" transform="translate(180,433)"/>
<path d="M0 0 C4.00415809 1.82240528 6.76812226 4.18392668 9 8 C9.71930584 11.59652921 9.70120595 13.71743057 7.92578125 16.96484375 C5.48640978 20.2329332 3.15429648 22.41943562 -0.875 23.375 C-4.65947345 23.55764833 -6.61667815 22.17111841 -9.5 19.8125 C-11.53125 17.95703125 -11.53125 17.95703125 -13 16 C-13 12 -13 12 -11.80664062 10.44433594 C-11.26201172 9.96254883 -10.71738281 9.48076172 -10.15625 8.984375 C-9.56972656 8.45585938 -8.98320312 7.92734375 -8.37890625 7.3828125 C-7.75886719 6.84398438 -7.13882812 6.30515625 -6.5 5.75 C-5.87996094 5.19570312 -5.25992187 4.64140625 -4.62109375 4.0703125 C-3.08949443 2.70365465 -1.54586106 1.35050499 0 0 Z M-5.125 8.5 C-6.49011719 9.75296875 -6.49011719 9.75296875 -7.8828125 11.03125 C-8.93082031 12.00578125 -8.93082031 12.00578125 -10 13 C-9.27254563 16.23016434 -8.81422626 18.0591543 -6 20 C-1.79321022 20.74787374 -0.28769467 20.18998704 3.3125 17.8125 C6.02823906 15.25614216 6.02823906 15.25614216 7.1875 12.5625 C6.89069086 8.50610844 4.84376198 6.84376198 2 4 C-1.26696117 4 -2.7920404 6.34649883 -5.125 8.5 Z " fill="#000000" transform="translate(407,92)"/>
<path d="M0 0 C2.55949546 1.85342775 2.97918798 2.93756393 4 6 C4.45776567 12.40871935 4.45776567 12.40871935 2.5 14.9375 C2.005 15.288125 1.51 15.63875 1 16 C0.01 15.67 -0.98 15.34 -2 15 C-1.34 14.01 -0.68 13.02 0 12 C0.24107326 9.71351152 0.24107326 9.71351152 0.125 7.3125 C0.09792969 6.10013672 0.09792969 6.10013672 0.0703125 4.86328125 C0.04710938 4.24839844 0.02390625 3.63351562 0 3 C-1.65 3.33 -3.3 3.66 -5 4 C-5.04898438 4.75925781 -5.09796875 5.51851563 -5.1484375 6.30078125 C-5.22320312 7.29464844 -5.29796875 8.28851563 -5.375 9.3125 C-5.44460937 10.29863281 -5.51421875 11.28476562 -5.5859375 12.30078125 C-6 15 -6 15 -8 18 C-11.23734607 18.41327822 -13.15605906 18.64023105 -15.8125 16.625 C-18.39256849 13.09437996 -18.30375374 10.32849079 -18 6 C-16.625 4.0625 -16.625 4.0625 -15 3 C-14.34 3 -13.68 3 -13 3 C-13.5076854 5.0307416 -14.00650907 7.01893549 -14.6875 9 C-15.09205762 11.58916878 -14.33413341 12.80260379 -13 15 C-11.68 15 -10.36 15 -9 15 C-9.03480469 14.16855469 -9.06960937 13.33710938 -9.10546875 12.48046875 C-9.13253906 11.39378906 -9.15960938 10.30710937 -9.1875 9.1875 C-9.23970703 7.56908203 -9.23970703 7.56908203 -9.29296875 5.91796875 C-9 3 -9 3 -7.67578125 1.13671875 C-5.06649976 -0.63321345 -3.0622653 -0.38278316 0 0 Z " fill="#000000" transform="translate(53,293)"/>
<path d="M0 0 C3.661446 3.46907581 6.51835758 6.95155905 9.3125 11.1875 C10.00988281 12.23292969 10.70726562 13.27835937 11.42578125 14.35546875 C13 17 13 17 13 19 C12.01 19.33 11.02 19.66 10 20 C8.68 17.69 7.36 15.38 6 13 C5.67 13 5.34 13 5 13 C4.81824219 13.92683594 4.63648438 14.85367187 4.44921875 15.80859375 C4.19785156 17.00613281 3.94648438 18.20367187 3.6875 19.4375 C3.44386719 20.63246094 3.20023437 21.82742188 2.94921875 23.05859375 C2.63597656 24.02925781 2.32273437 24.99992187 2 26 C1.01 26.33 0.02 26.66 -1 27 C-0.34 23.04 0.32 19.08 1 15 C-0.65 14.67 -2.3 14.34 -4 14 C-5.77666515 13.49942135 -7.54777878 12.97868117 -9.3125 12.4375 C-10.19550781 12.16808594 -11.07851563 11.89867187 -11.98828125 11.62109375 C-12.65214844 11.41613281 -13.31601562 11.21117187 -14 11 C-13.01 10.01 -12.02 9.02 -11 8 C-7 9.33333333 -3 10.66666667 1 12 C1.77802187 9.6984589 1.77802187 9.6984589 2 7 C1.03886134 5.63838689 0.04115841 4.30144802 -1 3 C-0.67 2.01 -0.34 1.02 0 0 Z " fill="#000000" transform="translate(366,407)"/>
<path d="M0 0 C6.93 1.65 13.86 3.3 21 5 C21 5.99 21 6.98 21 8 C18.03 7.34 15.06 6.68 12 6 C11.34 9.3 10.68 12.6 10 16 C12.64 16.99 15.28 17.98 18 19 C17.34 19.99 16.68 20.98 16 22 C9.4 20.35 2.8 18.7 -4 17 C-3.505 15.515 -3.505 15.515 -3 14 C0.3 14.66 3.6 15.32 7 16 C7.66 12.7 8.32 9.4 9 6 C6.03 5.01 3.06 4.02 0 3 C0 2.01 0 1.02 0 0 Z " fill="#000000" transform="translate(445,286)"/>
<path d="M0 0 C-0.61096791 2.91687906 -1.51314558 5.13415334 -3.06640625 7.671875 C-3.6706543 8.66767578 -3.6706543 8.66767578 -4.28710938 9.68359375 C-4.70798828 10.36550781 -5.12886719 11.04742187 -5.5625 11.75 C-6.19961914 12.79607422 -6.19961914 12.79607422 -6.84960938 13.86328125 C-7.89510086 15.57835717 -8.94693351 17.28956473 -10 19 C-6.04 18.67 -2.08 18.34 2 18 C2.33 18.99 2.66 19.98 3 21 C-2.61 21.66 -8.22 22.32 -14 23 C-15 20 -15 20 -14.19555664 18.19067383 C-13.77137451 17.53607178 -13.34719238 16.88146973 -12.91015625 16.20703125 C-12.45576172 15.49482422 -12.00136719 14.78261719 -11.53320312 14.04882812 C-11.04787109 13.31083984 -10.56253906 12.57285156 -10.0625 11.8125 C-9.58103516 11.06291016 -9.09957031 10.31332031 -8.60351562 9.54101562 C-7.41150343 7.68808577 -6.20691854 5.8432552 -5 4 C-8.3 4 -11.6 4 -15 4 C-15.33 3.01 -15.66 2.02 -16 1 C-10.61509359 0.08342019 -5.45769811 -0.11138159 0 0 Z " fill="#010101" transform="translate(232,25)"/>
<path d="M0 0 C2.41992592 0.59294205 4.83533558 1.19879139 7.25 1.8125 C8.27287109 2.0609668 8.27287109 2.0609668 9.31640625 2.31445312 C13.10063596 3.28806562 16.247873 4.14362577 19 7 C19.59706743 11.62727259 19.5886852 13.86972441 17.4375 18 C14.86490335 20.11084853 13.52127337 20.60652242 10.21484375 20.375 C5.40355633 19.56039049 0.70045178 18.29667635 -4 17 C-4 16.01 -4 15.02 -4 14 C-2.93072266 14.2165625 -2.93072266 14.2165625 -1.83984375 14.4375 C6.03067801 16.0225959 6.03067801 16.0225959 14 16 C14.66 15.01 15.32 14.02 16 13 C15.67 11.35 15.34 9.7 15 8 C9.72 6.35 4.44 4.7 -1 3 C-0.67 2.01 -0.34 1.02 0 0 Z " fill="#000000" transform="translate(36,184)"/>
<path d="M0 0 C2.23046875 0.41015625 2.23046875 0.41015625 5.29296875 2.47265625 C7.6553161 6.05427966 7.64318033 8.20049811 7.23046875 12.41015625 C6.24046875 12.08015625 5.25046875 11.75015625 4.23046875 11.41015625 C4.12734375 10.46140625 4.02421875 9.51265625 3.91796875 8.53515625 C3.5450758 5.11908124 3.5450758 5.11908124 0.23046875 3.41015625 C-3.5905937 3.49145545 -5.27651165 3.96903345 -8.14453125 6.53515625 C-10.16970722 10.11815989 -10.30510249 12.35511687 -9.76953125 16.41015625 C-6.52027003 18.5763304 -6.17100705 18.62351294 -2.58203125 18.03515625 C-1.32390625 17.82890625 -0.06578125 17.62265625 1.23046875 17.41015625 C1.56046875 18.40015625 1.89046875 19.39015625 2.23046875 20.41015625 C-0.42514857 22.21597602 -1.94063358 22.41015625 -5.20703125 22.41015625 C-9.82121095 21.11494791 -11.25830556 19.44333691 -13.76953125 15.41015625 C-14.52776164 11.36626083 -13.99819737 9.81229321 -11.95703125 6.22265625 C-8.0661605 1.22010815 -6.42559771 -0.24109094 0 0 Z " fill="#000000" transform="translate(373.76953125,62.58984375)"/>
<path d="M0 0 C0.33 0 0.66 0 1 0 C1 4.29 1 8.58 1 13 C3.475 13.495 3.475 13.495 6 14 C7.44896045 14.48804427 8.88796947 15.00717454 10.3125 15.5625 C11.529375 16.036875 12.74625 16.51125 14 17 C13.34 17.66 12.68 18.32 12 19 C8.0204298 18.64626043 4.64311114 17.60725491 1 16 C0.96261719 16.69867188 0.92523438 17.39734375 0.88671875 18.1171875 C0.82097656 19.02726562 0.75523437 19.93734375 0.6875 20.875 C0.62949219 21.77992187 0.57148438 22.68484375 0.51171875 23.6171875 C0 26 0 26 -3 28 C-2.67 23.38 -2.34 18.76 -2 14 C-3.423125 13.54625 -4.84625 13.0925 -6.3125 12.625 C-9.3373411 11.66055791 -11.3139714 10.79068573 -14 9 C-9.06729471 7.3557649 -6.45975807 8.81384408 -2 11 C-1.93941406 10.28972656 -1.87882813 9.57945313 -1.81640625 8.84765625 C-1.73261719 7.92855469 -1.64882812 7.00945313 -1.5625 6.0625 C-1.48128906 5.14597656 -1.40007812 4.22945312 -1.31640625 3.28515625 C-1 1 -1 1 0 0 Z " fill="#000000" transform="translate(134,56)"/>
<path d="M0 0 C3.85955925 3.74666538 7.36619254 7.68521322 10.8125 11.8125 C11.56563477 12.7087207 11.56563477 12.7087207 12.33398438 13.62304688 C13.55806732 15.08028848 14.77932962 16.53989865 16 18 C14.8190918 19.52270508 14.8190918 19.52270508 13 21 C10.63989258 21.06518555 10.63989258 21.06518555 7.89453125 20.63671875 C6.91162109 20.49169922 5.92871094 20.34667969 4.91601562 20.19726562 C3.89185547 20.02904297 2.86769531 19.86082031 1.8125 19.6875 C0.77673828 19.53087891 -0.25902344 19.37425781 -1.32617188 19.21289062 C-3.88680249 18.82348597 -6.44401829 18.41866582 -9 18 C-8.01 16.515 -8.01 16.515 -7 15 C-1.06 15.66 4.88 16.32 11 17 C7.3906649 12.89229133 7.3906649 12.89229133 3.75976562 8.80371094 C3.08977539 8.02688965 3.08977539 8.02688965 2.40625 7.234375 C1.71499023 6.44885254 1.71499023 6.44885254 1.00976562 5.64746094 C0 4 0 4 0 0 Z " fill="#000000" transform="translate(59,129)"/>
<path d="M0 0 C0.66 4.29 1.32 8.58 2 13 C1.01 12.67 0.02 12.34 -1 12 C-1.73046875 9.93359375 -1.73046875 9.93359375 -2.1875 7.4375 C-2.34605469 6.61121094 -2.50460937 5.78492188 -2.66796875 4.93359375 C-2.77753906 4.29550781 -2.88710938 3.65742188 -3 3 C-4.98 3 -6.96 3 -9 3 C-8.34 6.3 -7.68 9.6 -7 13 C-7.99 13 -8.98 13 -10 13 C-10.33 10.03 -10.66 7.06 -11 4 C-14.3 4.66 -17.6 5.32 -21 6 C-21.33 5.01 -21.66 4.02 -22 3 C-18.89857059 2.29973482 -15.7935359 1.61701544 -12.6875 0.9375 C-11.80642578 0.73833984 -10.92535156 0.53917969 -10.01757812 0.33398438 C-9.17001953 0.15029297 -8.32246094 -0.03339844 -7.44921875 -0.22265625 C-6.27879028 -0.48187866 -6.27879028 -0.48187866 -5.0847168 -0.74633789 C-3 -1 -3 -1 0 0 Z " fill="#000000" transform="translate(465,194)"/>
<path d="M0 0 C0.66 0.33 1.32 0.66 2 1 C1.64035156 2.37671875 1.64035156 2.37671875 1.2734375 3.78125 C-0.44984334 10.91413418 -1.63785606 16.05827351 1 23 C0.01 23 -0.98 23 -2 23 C-3.25664978 20.09399739 -4 18.20395416 -4 15 C-5.0828125 14.62875 -5.0828125 14.62875 -6.1875 14.25 C-9.26272577 12.88323299 -11.43436716 11.16053292 -14 9 C-14.99 8.34 -15.98 7.68 -17 7 C-14.9375 6.1875 -14.9375 6.1875 -12 6 C-9.45310725 7.41026293 -7.23357494 9.13976035 -5 11 C-3.72307548 8.62856876 -2.7930661 6.37919831 -1.9375 3.8125 C-1 1 -1 1 0 0 Z " fill="#000000" transform="translate(177,36)"/>
<path d="M0 0 C0.99 0 1.98 0 3 0 C3 2.31 3 4.62 3 7 C12.405 6.505 12.405 6.505 22 6 C22 6.99 22 7.98 22 9 C12.595 9.495 12.595 9.495 3 10 C3 12.31 3 14.62 3 17 C2.01 16.67 1.02 16.34 0 16 C0 10.72 0 5.44 0 0 Z " fill="#000000" transform="translate(27,242)"/>
<path d="M0 0 C0.9831543 1.76586914 0.9831543 1.76586914 1.82421875 4.03515625 C2.13037109 4.84404297 2.43652344 5.65292969 2.75195312 6.48632812 C3.06068359 7.33646484 3.36941406 8.18660156 3.6875 9.0625 C4.00783203 9.91650391 4.32816406 10.77050781 4.65820312 11.65039062 C5.44908493 13.76334351 6.2291202 15.87968513 7 18 C6.01 18.66 5.02 19.32 4 20 C2.99580363 17.5433053 1.99649499 15.08481647 1 12.625 C0.71382813 11.92632812 0.42765625 11.22765625 0.1328125 10.5078125 C-2 5.2265625 -2 5.2265625 -2 3 C-7.445 4.485 -7.445 4.485 -13 6 C-13 5.01 -13 4.02 -13 3 C-11.40084119 2.30093058 -9.79544955 1.61610532 -8.1875 0.9375 C-7.29417969 0.55464844 -6.40085937 0.17179687 -5.48046875 -0.22265625 C-3 -1 -3 -1 0 0 Z " fill="#000000" transform="translate(330,431)"/>
<path d="M0 0 C-0.99 1.485 -0.99 1.485 -2 3 C-3.32 2.67 -4.64 2.34 -6 2 C-6.33 2.99 -6.66 3.98 -7 5 C-6.319375 5.680625 -5.63875 6.36125 -4.9375 7.0625 C-1.625 10.375 1.6875 13.6875 5 17 C4.67 17.66 4.34 18.32 4 19 C-1.35631888 16.58536655 -7.39629552 12.48272302 -9.91015625 7.0234375 C-10.4060975 4.34421465 -10.21751014 2.43502029 -9 0 C-5.88291635 -1.55854182 -3.3141692 -0.68784644 0 0 Z " fill="#000000" transform="translate(407,378)"/>
<path d="M0 0 C3.83206182 0.41427695 6.08025204 1.51280729 9 4 C7.92598892 6.91517292 7.22189824 8.77810176 5 11 C2.69 9.35 0.38 7.7 -2 6 C-1.125 1.125 -1.125 1.125 0 0 Z " fill="#FFFFFF" transform="translate(128,421)"/>
<path d="M0 0 C1.65 0 3.3 0 5 0 C9 6.75 9 6.75 9 9 C6.35261084 10.4606285 5.10551666 11 2 11 C-1.07692308 5.70769231 -1.07692308 5.70769231 -0.6875 2.125 C-0.460625 1.42375 -0.23375 0.7225 0 0 Z " fill="#FFFFFF" transform="translate(56,344)"/>
<path d="M0 0 C3.82097239 0.53069061 6.06171403 1.49701566 9 4 C8.67 5.65 8.34 7.3 8 9 C4.05272412 9.17942163 1.4019487 9.09350689 -2 7 C-1.125 2.25 -1.125 2.25 0 0 Z " fill="#FFFFFF" transform="translate(323,50)"/>
<path d="M0 0 C2.8624741 0.62651427 5.28081653 1.52170517 7.890625 2.84765625 C8.95410156 3.38422852 8.95410156 3.38422852 10.0390625 3.93164062 C10.76867187 4.30482422 11.49828125 4.67800781 12.25 5.0625 C12.99507813 5.43955078 13.74015625 5.81660156 14.5078125 6.20507812 C16.34037531 7.13310673 18.17043676 8.06607179 20 9 C19.67 9.99 19.34 10.98 19 12 C14.63221913 10.32073668 10.41834992 8.36694083 6.1875 6.375 C5.49462891 6.05015625 4.80175781 5.7253125 4.08789062 5.390625 C2.39133977 4.59500115 0.69558835 3.79767301 -1 3 C-0.67 2.01 -0.34 1.02 0 0 Z " fill="#000000" transform="translate(426,338)"/>
<path d="M0 0 C2.64 1.32 5.28 2.64 8 4 C7.67 5.32 7.34 6.64 7 8 C4.21176345 9.0326802 3.1322726 9.04509293 0.25 8.0625 C-0.4925 7.711875 -1.235 7.36125 -2 7 C-1.125 1.125 -1.125 1.125 0 0 Z " fill="#FFFFFF" transform="translate(327,41)"/>
<path d="M0 0 C0.33 0 0.66 0 1 0 C1.66 3.3 2.32 6.6 3 10 C0.69 9.67 -1.62 9.34 -4 9 C-2.94124926 5.59687262 -1.99097846 2.98646769 0 0 Z " fill="#FFFFFF" transform="translate(279,30)"/>
<path d="M0 0 C0.66 0.33 1.32 0.66 2 1 C0.92319498 2.13125022 -0.16175635 3.25474919 -1.25 4.375 C-1.85328125 5.00148438 -2.4565625 5.62796875 -3.078125 6.2734375 C-4.9700588 7.97310161 -6.68201309 8.98459866 -9 10 C-7.61811547 6.78956118 -6.07578097 4.95063635 -3.375 2.75 C-2.74335937 2.22921875 -2.11171875 1.7084375 -1.4609375 1.171875 C-0.73777344 0.59179688 -0.73777344 0.59179688 0 0 Z " fill="#949494" transform="translate(122,394)"/>
</svg>
